<svg width="459" height="105" viewBox="0 0 459 105" fill="none" xmlns="http://www.w3.org/2000/svg">
<rect width="105" height="105" rx="25" fill="black"/>
<path d="M43.7648 46.2035L29.7973 61.0578M29.7973 61.0578L43.7648 75.9121M29.7973 61.0578H63.3193C66.2828 61.0578 69.1249 59.8058 71.2205 57.5773C73.316 55.3487 74.4932 52.3261 74.4932 49.1744V28.3784" stroke="white" stroke-width="6.5" stroke-linecap="round" stroke-linejoin="round"/>
<path d="M141.706 95V15.8H174.431C175.201 15.8 176.191 15.8367 177.401 15.91C178.611 15.9467 179.729 16.0567 180.756 16.24C185.339 16.9367 189.116 18.4583 192.086 20.805C195.093 23.1517 197.311 26.1217 198.741 29.715C200.208 33.2717 200.941 37.2317 200.941 41.595C200.941 48.0483 199.309 53.6033 196.046 58.26C192.783 62.88 187.778 65.74 181.031 66.84L175.366 67.335H154.961V95H141.706ZM187.191 95L171.571 62.77L185.046 59.8L202.206 95H187.191ZM154.961 54.96H173.881C174.614 54.96 175.439 54.9233 176.356 54.85C177.273 54.7767 178.116 54.63 178.886 54.41C181.086 53.86 182.809 52.8883 184.056 51.495C185.339 50.1017 186.238 48.525 186.751 46.765C187.301 45.005 187.576 43.2817 187.576 41.595C187.576 39.9083 187.301 38.185 186.751 36.425C186.238 34.6283 185.339 33.0333 184.056 31.64C182.809 30.2467 181.086 29.275 178.886 28.725C178.116 28.505 177.273 28.3767 176.356 28.34C175.439 28.2667 174.614 28.23 173.881 28.23H154.961V54.96ZM234.728 96.65C228.715 96.65 223.435 95.3483 218.888 92.745C214.341 90.1417 210.785 86.53 208.218 81.91C205.688 77.29 204.423 71.9733 204.423 65.96C204.423 59.47 205.67 53.8417 208.163 49.075C210.656 44.2717 214.121 40.55 218.558 37.91C222.995 35.27 228.128 33.95 233.958 33.95C240.118 33.95 245.343 35.3983 249.633 38.295C253.96 41.155 257.168 45.2067 259.258 50.45C261.348 55.6933 262.136 61.8717 261.623 68.985H248.478V64.145C248.441 57.6917 247.305 52.98 245.068 50.01C242.831 47.04 239.311 45.555 234.508 45.555C229.081 45.555 225.048 47.2417 222.408 50.615C219.768 53.9517 218.448 58.8467 218.448 65.3C218.448 71.3133 219.768 75.97 222.408 79.27C225.048 82.57 228.898 84.22 233.958 84.22C237.221 84.22 240.026 83.505 242.373 82.075C244.756 80.6083 246.59 78.5 247.873 75.75L260.963 79.71C258.69 85.0633 255.17 89.225 250.403 92.195C245.673 95.165 240.448 96.65 234.728 96.65ZM214.268 68.985V58.975H255.133V68.985H214.268ZM295.84 96.65C290.047 96.65 285.188 95.275 281.265 92.525C277.342 89.775 274.39 86.035 272.41 81.305C270.43 76.5383 269.44 71.2033 269.44 65.3C269.44 59.3233 270.43 53.97 272.41 49.24C274.39 44.51 277.287 40.7883 281.1 38.075C284.95 35.325 289.698 33.95 295.345 33.95C300.955 33.95 305.813 35.325 309.92 38.075C314.063 40.7883 317.272 44.51 319.545 49.24C321.818 53.9333 322.955 59.2867 322.955 65.3C322.955 71.24 321.837 76.575 319.6 81.305C317.363 86.035 314.21 89.775 310.14 92.525C306.07 95.275 301.303 96.65 295.84 96.65ZM267.185 95V15.8H280.55V53.31H278.9V95H267.185ZM293.805 84.77C297.252 84.77 300.093 83.9083 302.33 82.185C304.567 80.4617 306.217 78.1333 307.28 75.2C308.38 72.23 308.93 68.93 308.93 65.3C308.93 61.7067 308.38 58.4433 307.28 55.51C306.18 52.54 304.475 50.1933 302.165 48.47C299.855 46.71 296.922 45.83 293.365 45.83C289.992 45.83 287.242 46.655 285.115 48.305C282.988 49.9183 281.412 52.1917 280.385 55.125C279.395 58.0217 278.9 61.4133 278.9 65.3C278.9 69.15 279.395 72.5417 280.385 75.475C281.412 78.4083 283.007 80.7 285.17 82.35C287.37 83.9633 290.248 84.77 293.805 84.77ZM354.713 96.65C348.773 96.65 343.585 95.3117 339.148 92.635C334.711 89.9583 331.265 86.2733 328.808 81.58C326.388 76.85 325.178 71.4233 325.178 65.3C325.178 59.0667 326.425 53.6033 328.918 48.91C331.411 44.2167 334.876 40.55 339.313 37.91C343.75 35.27 348.883 33.95 354.713 33.95C360.69 33.95 365.896 35.2883 370.333 37.965C374.77 40.6417 378.216 44.345 380.673 49.075C383.13 53.7683 384.358 59.1767 384.358 65.3C384.358 71.46 383.111 76.905 380.618 81.635C378.161 86.3283 374.715 90.0133 370.278 92.69C365.841 95.33 360.653 96.65 354.713 96.65ZM354.713 84.22C359.993 84.22 363.916 82.46 366.483 78.94C369.05 75.42 370.333 70.8733 370.333 65.3C370.333 59.5433 369.031 54.96 366.428 51.55C363.825 48.1033 359.92 46.38 354.713 46.38C351.156 46.38 348.223 47.1867 345.913 48.8C343.64 50.3767 341.953 52.595 340.853 55.455C339.753 58.2783 339.203 61.56 339.203 65.3C339.203 71.0567 340.505 75.6583 343.108 79.105C345.748 82.515 349.616 84.22 354.713 84.22ZM390.976 95V14.15H404.231V95H390.976ZM448.921 95C444.998 95.7333 441.148 96.045 437.371 95.935C433.631 95.8617 430.276 95.1833 427.306 93.9C424.336 92.58 422.081 90.5083 420.541 87.685C419.185 85.1183 418.47 82.4967 418.396 79.82C418.323 77.1433 418.286 74.1183 418.286 70.745V19.1H431.486V69.975C431.486 72.3583 431.505 74.4483 431.541 76.245C431.615 78.0417 432 79.5083 432.696 80.645C434.016 82.845 436.125 84.0733 439.021 84.33C441.918 84.5867 445.218 84.44 448.921 83.89V95ZM407.506 45.995V35.6H448.921V45.995H407.506Z" fill="black"/>
</svg>
