<svg width="105" height="105" viewBox="0 0 105 105" fill="none" xmlns="http://www.w3.org/2000/svg">
<path d="M65 0C79.0011 0 86.0018 -0.000118694 91.3496 2.72461C96.0537 5.12144 99.8786 8.94634 102.275 13.6504C105 18.9982 105 25.9989 105 40V65C105 79.0011 105 86.0018 102.275 91.3496C99.8786 96.0537 96.0537 99.8786 91.3496 102.275C86.0018 105 79.0011 105 65 105H40C25.9989 105 18.9982 105 13.6504 102.275C8.94634 99.8786 5.12144 96.0537 2.72461 91.3496C-0.000118646 86.0018 0 79.0011 0 65V40C0 25.9989 -0.000118694 18.9982 2.72461 13.6504C5.12144 8.94634 8.94634 5.12144 13.6504 2.72461C18.9982 -0.000118646 25.9989 0 40 0H65ZM74.4941 25.1279C72.6994 25.1279 71.2444 26.5832 71.2441 28.3779V49.1738C71.2441 51.5257 70.3632 53.7447 68.8535 55.3506C67.35 56.9496 65.3539 57.8075 63.3193 57.8076H37.3154L46.1328 48.4297C47.3619 47.122 47.2986 45.0644 45.9912 43.835C44.6837 42.606 42.6269 42.6696 41.3975 43.9766L27.4297 58.8311C26.2535 60.0822 26.2533 62.0331 27.4297 63.2842L41.3975 78.1377C42.627 79.4453 44.6836 79.5087 45.9912 78.2793C47.2575 77.0881 47.3569 75.121 46.2441 73.8105L46.1328 73.6855L37.3154 64.3076H63.3193C67.2114 64.3075 70.9016 62.6606 73.5889 59.8027C76.2694 56.9516 77.7441 53.1248 77.7441 49.1738V28.3779C77.7439 26.5835 76.2885 25.1284 74.4941 25.1279Z" fill="white"/>
</svg>
